<mxfile host="app.diagrams.net" modified="2023-05-30T02:42:42.916Z" agent="Mozilla/5.0 (Windows NT 10.0; Win64; x64) AppleWebKit/537.36 (KHTML, like Gecko) Chrome/113.0.0.0 Safari/537.36" etag="N9xw5Vq_U_dYJ5iTB0R_" version="21.3.4" type="github">
  <diagram id="C5RBs43oDa-KdzZeNtuy" name="Page-1">
    <mxGraphModel dx="1434" dy="756" grid="1" gridSize="10" guides="1" tooltips="1" connect="1" arrows="1" fold="1" page="1" pageScale="1" pageWidth="827" pageHeight="1169" math="0" shadow="0">
      <root>
        <mxCell id="WIyWlLk6GJQsqaUBKTNV-0" />
        <mxCell id="WIyWlLk6GJQsqaUBKTNV-1" parent="WIyWlLk6GJQsqaUBKTNV-0" />
        <mxCell id="ClwOzFlCSxNprHKa8eh9-3" style="edgeStyle=orthogonalEdgeStyle;rounded=0;orthogonalLoop=1;jettySize=auto;html=1;entryX=0.5;entryY=0;entryDx=0;entryDy=0;" edge="1" parent="WIyWlLk6GJQsqaUBKTNV-1" source="ClwOzFlCSxNprHKa8eh9-0" target="ClwOzFlCSxNprHKa8eh9-2">
          <mxGeometry relative="1" as="geometry" />
        </mxCell>
        <mxCell id="ClwOzFlCSxNprHKa8eh9-0" value="Create Submission Request" style="rounded=0;whiteSpace=wrap;html=1;" vertex="1" parent="WIyWlLk6GJQsqaUBKTNV-1">
          <mxGeometry x="200" y="60" width="120" height="60" as="geometry" />
        </mxCell>
        <mxCell id="ClwOzFlCSxNprHKa8eh9-7" style="edgeStyle=orthogonalEdgeStyle;rounded=0;orthogonalLoop=1;jettySize=auto;html=1;exitX=1;exitY=0.5;exitDx=0;exitDy=0;entryX=0.5;entryY=0;entryDx=0;entryDy=0;" edge="1" parent="WIyWlLk6GJQsqaUBKTNV-1" source="ClwOzFlCSxNprHKa8eh9-2" target="ClwOzFlCSxNprHKa8eh9-6">
          <mxGeometry relative="1" as="geometry" />
        </mxCell>
        <mxCell id="ClwOzFlCSxNprHKa8eh9-8" value="Yes" style="edgeLabel;html=1;align=center;verticalAlign=middle;resizable=0;points=[];" vertex="1" connectable="0" parent="ClwOzFlCSxNprHKa8eh9-7">
          <mxGeometry x="0.0314" relative="1" as="geometry">
            <mxPoint as="offset" />
          </mxGeometry>
        </mxCell>
        <mxCell id="ClwOzFlCSxNprHKa8eh9-15" value="No" style="edgeStyle=orthogonalEdgeStyle;rounded=0;orthogonalLoop=1;jettySize=auto;html=1;entryX=0.5;entryY=0;entryDx=0;entryDy=0;" edge="1" parent="WIyWlLk6GJQsqaUBKTNV-1" source="ClwOzFlCSxNprHKa8eh9-2" target="ClwOzFlCSxNprHKa8eh9-9">
          <mxGeometry relative="1" as="geometry" />
        </mxCell>
        <mxCell id="ClwOzFlCSxNprHKa8eh9-2" value="Is Prepaid configured?" style="rhombus;whiteSpace=wrap;html=1;" vertex="1" parent="WIyWlLk6GJQsqaUBKTNV-1">
          <mxGeometry x="195" y="160" width="130" height="80" as="geometry" />
        </mxCell>
        <mxCell id="ClwOzFlCSxNprHKa8eh9-12" style="edgeStyle=orthogonalEdgeStyle;rounded=0;orthogonalLoop=1;jettySize=auto;html=1;entryX=0.5;entryY=0;entryDx=0;entryDy=0;" edge="1" parent="WIyWlLk6GJQsqaUBKTNV-1" source="ClwOzFlCSxNprHKa8eh9-6" target="ClwOzFlCSxNprHKa8eh9-10">
          <mxGeometry relative="1" as="geometry" />
        </mxCell>
        <mxCell id="ClwOzFlCSxNprHKa8eh9-6" value="Pay for a new submission" style="rounded=0;whiteSpace=wrap;html=1;" vertex="1" parent="WIyWlLk6GJQsqaUBKTNV-1">
          <mxGeometry x="354" y="270" width="120" height="60" as="geometry" />
        </mxCell>
        <mxCell id="ClwOzFlCSxNprHKa8eh9-9" value="Submit Paper" style="rounded=0;whiteSpace=wrap;html=1;" vertex="1" parent="WIyWlLk6GJQsqaUBKTNV-1">
          <mxGeometry x="200" y="400" width="120" height="60" as="geometry" />
        </mxCell>
        <mxCell id="ClwOzFlCSxNprHKa8eh9-13" value="No" style="edgeStyle=orthogonalEdgeStyle;rounded=0;orthogonalLoop=1;jettySize=auto;html=1;entryX=0;entryY=0.5;entryDx=0;entryDy=0;entryPerimeter=0;" edge="1" parent="WIyWlLk6GJQsqaUBKTNV-1" source="ClwOzFlCSxNprHKa8eh9-10" target="ClwOzFlCSxNprHKa8eh9-11">
          <mxGeometry relative="1" as="geometry" />
        </mxCell>
        <mxCell id="ClwOzFlCSxNprHKa8eh9-14" value="Yes" style="edgeStyle=orthogonalEdgeStyle;rounded=0;orthogonalLoop=1;jettySize=auto;html=1;entryX=1;entryY=0.333;entryDx=0;entryDy=0;entryPerimeter=0;" edge="1" parent="WIyWlLk6GJQsqaUBKTNV-1" source="ClwOzFlCSxNprHKa8eh9-10" target="ClwOzFlCSxNprHKa8eh9-9">
          <mxGeometry relative="1" as="geometry" />
        </mxCell>
        <mxCell id="ClwOzFlCSxNprHKa8eh9-10" value="Payment successful?" style="rhombus;whiteSpace=wrap;html=1;" vertex="1" parent="WIyWlLk6GJQsqaUBKTNV-1">
          <mxGeometry x="374" y="380" width="80" height="80" as="geometry" />
        </mxCell>
        <mxCell id="ClwOzFlCSxNprHKa8eh9-11" value="Notify Submission Request Failed" style="rounded=0;whiteSpace=wrap;html=1;" vertex="1" parent="WIyWlLk6GJQsqaUBKTNV-1">
          <mxGeometry x="530" y="390" width="120" height="60" as="geometry" />
        </mxCell>
        <mxCell id="ClwOzFlCSxNprHKa8eh9-16" value="Order API" style="rounded=0;whiteSpace=wrap;html=1;" vertex="1" parent="WIyWlLk6GJQsqaUBKTNV-1">
          <mxGeometry x="670" y="160" width="120" height="60" as="geometry" />
        </mxCell>
        <mxCell id="ClwOzFlCSxNprHKa8eh9-17" value="Answer Is Prepaid configured" style="rounded=0;whiteSpace=wrap;html=1;" vertex="1" parent="WIyWlLk6GJQsqaUBKTNV-1">
          <mxGeometry x="670" y="60" width="120" height="60" as="geometry" />
        </mxCell>
        <mxCell id="ClwOzFlCSxNprHKa8eh9-19" value="Payment API return payment status" style="rounded=0;whiteSpace=wrap;html=1;" vertex="1" parent="WIyWlLk6GJQsqaUBKTNV-1">
          <mxGeometry x="670" y="250" width="120" height="60" as="geometry" />
        </mxCell>
        <mxCell id="ClwOzFlCSxNprHKa8eh9-20" value="Submission Creation API" style="rounded=0;whiteSpace=wrap;html=1;" vertex="1" parent="WIyWlLk6GJQsqaUBKTNV-1">
          <mxGeometry x="670" y="340" width="120" height="60" as="geometry" />
        </mxCell>
      </root>
    </mxGraphModel>
  </diagram>
</mxfile>
